<?xml version="1.0" encoding="UTF-8"?>
<svg width="136px" height="51px" viewBox="0 0 136 51" version="1.1" xmlns="http://www.w3.org/2000/svg" xmlns:xlink="http://www.w3.org/1999/xlink">
    <!-- Generator: Sketch 61 (89581) - https://sketch.com -->
    <title>logo_blanco</title>
    <desc>Created with Sketch.</desc>
    <g id="NG-España" stroke="none" stroke-width="1" fill="none" fill-rule="evenodd">
        <g id="17_1_Home_Desktop" transform="translate(-766.000000, -12842.000000)" fill-rule="nonzero">
            <g id="logo_blanco" transform="translate(766.000000, 12842.000000)">
                <g id="Group" fill="#FFFFFF">
                    <path d="M127.208403,0.762319755 L127.15915,0.587606163 L120.933661,0.587606163 L112.676055,29.4300513 L118.769222,29.4300513 L120.115962,23.8051558 L127.935437,23.8051558 L129.242726,29.4300513 L135.336383,29.4300513 L127.208403,0.762319755 Z M121.337732,18.6901887 L124.044935,6.99589489 L126.715627,18.6901887 L121.337732,18.6901887 Z" id="Shape"></path>
                    <polygon id="Path" points="113.10561 29.4302963 107.138883 29.4302963 107.138883 0.587606163 113.10561 0.587606163"></polygon>
                    <path d="M103.127822,21.5128056 C102.834509,20.9675914 101.366474,18.5103293 100.79455,17.897484 C100.037131,17.0795401 99.4701085,16.7465306 98.9346959,16.5316304 C102.736248,15.2613425 104.662263,12.7009185 104.662263,8.91308864 C104.662263,3.95666252 101.591911,1.54669312 98.9589548,0.988491769 C97.0309793,0.611130013 94.7349536,0.587606163 94.7129,0.587606163 L85.0012256,0.587606163 L85.0012256,29.4391178 L90.8375908,29.4391178 L90.8375908,17.634801 L91.4249519,17.634801 C93.4783879,17.634801 94.1698911,17.634801 96.0415074,21.1489211 L100.428215,29.4391178 L107.029106,29.4391178 L103.127822,21.5128056 Z M93.2870116,12.8280943 L90.8375908,12.8280943 L90.8375908,5.71163972 L93.7623894,5.71163972 C95.4904122,5.71163972 98.7070536,5.71163972 98.7070536,9.15102258 C98.7068086,11.76266 97.1365916,12.8280943 93.2870116,12.8280943 Z" id="Shape"></path>
                    <path d="M81.8208501,5.34726509 C80.1447759,1.98359962 77.212381,0.278365555 73.1052638,0.278365555 C69.323805,0.278365555 66.5327982,1.7848721 64.8096762,4.75598333 C63.4254447,7.14316399 62.7234048,10.4889415 62.7234048,14.7006908 C62.7234048,25.0269257 66.0348767,29.8363278 73.1449603,29.8363278 C83.6064574,29.8363278 83.6064574,19.0104561 83.6064574,15.4532089 C83.6064574,11.0032807 83.0389445,7.79203018 81.8208501,5.34726509 Z M76.833549,22.6662094 C76.2902951,23.7142459 75.0871482,24.9176378 73.1846568,24.9176378 C68.5259544,24.9176378 68.4872381,18.5122896 68.4872381,15.9891117 C68.4872381,14.0868653 68.6036321,10.2051851 69.1860924,8.49676551 C70.0403022,6.01230393 71.6320827,5.19705551 73.1846568,5.19705551 C77.8428691,5.19705551 77.8428691,11.6026488 77.8428691,14.0868653 C77.8428691,20.3368582 77.4160093,21.5015338 76.833549,22.6662094 Z" id="Shape"></path>
                    <polygon id="Path" points="19.1366518 29.4302963 13.308863 29.4302963 13.308863 16.8732163 5.90620156 16.8732163 5.90620156 29.4302963 0.0784128324 29.4302963 0.0784128324 0.587606163 5.90620156 0.587606163 5.90620156 11.7977007 13.308863 11.7977007 13.308863 0.587606163 19.1366518 0.587606163"></polygon>
                    <polygon id="Path" points="27.3856817 29.4302963 21.557893 29.4302963 21.557893 0.587606163 27.3856817 0.587606163"></polygon>
                    <path d="M38.6234658,29.9054291 C29.7410072,29.9054291 29.2744508,23.0031395 29.0749882,20.0560422 L29.0593056,19.822764 L35.0015281,19.2630924 L35.0206412,19.5061722 C35.2203489,22.0631657 35.6984221,24.790707 38.8611547,24.790707 C41.5796296,24.790707 42.3049483,22.7505032 42.3049483,21.5449059 C42.3049483,19.1217043 40.1160051,18.0175536 36.5447906,16.4164616 C33.876549,15.2191957 29.4109382,13.2155027 29.4109382,8.03756036 C29.4109382,5.89615492 30.1869802,3.94343035 31.5959607,2.53935057 C33.1892115,0.951490713 35.5300796,0.112228366 38.3656836,0.112228366 C46.40937,0.112228366 46.7668835,6.63372562 46.8845027,8.77684635 L46.8974899,9.01551541 L41.0924899,9.35930667 L41.0474025,9.06109287 C40.8501452,7.75257873 40.439458,5.02920304 37.8903058,5.02920304 C36.5509166,5.02920304 35.1992754,5.8123512 35.1992754,7.56169249 C35.1992754,9.57469692 37.6251724,10.7009012 39.9711864,11.7896144 C40.1640329,11.879054 40.3566344,11.9684937 40.5480108,12.0584234 C45.2064681,14.2530025 48.0932856,16.5387366 48.0932856,21.148676 C48.0932856,25.1881621 45.6132347,29.9054291 38.6234658,29.9054291 Z" id="Path"></path>
                    <polygon id="Path" points="58.1546321 29.4302963 52.3265984 29.4302963 52.3265984 5.54427733 46.7610025 5.54427733 46.7610025 0.587606163 63.7202279 0.587606163 63.7202279 5.54427733 58.1546321 5.54427733 58.1546321 29.4302963"></polygon>
                </g>
                <path d="M1.84711228,33.7687313 L10.9640743,33.7687313 L10.9640743,48.4360967 L1.84711228,48.4360967 L1.84711228,33.7687313 Z M0,50.2859044 L12.8185378,50.2859044 L12.8185378,31.9194137 L0,31.9194137 L0,50.2859044 Z" id="Shape" fill="#F4D310"></path>
                <path d="M21.3336813,40.158397 L20.5390163,40.158397 C19.4978409,38.6881564 18.465977,37.2269823 17.4338681,35.5739417 L17.4248016,35.5739417 L17.4248016,40.158397 L16.5480481,40.158397 L16.5480481,33.7653008 L17.3424681,33.7653008 C18.3836435,35.2264749 19.4157524,36.6790726 20.4385498,38.3225566 L20.4569278,38.3225566 L20.4569278,33.7653008 L21.3336813,33.7653008 L21.3336813,40.158397 Z" id="Path" fill="#FFFFFF"></path>
                <path d="M23.8357858,33.7653008 L21.6257691,40.158397 L22.5755445,40.158397 L23.1325207,38.4139565 L25.059516,38.4139565 L25.5618482,40.158397 L26.7858236,40.158397 L24.7490502,33.7653008 L23.8357858,33.7653008 Z M23.415787,37.628603 C23.6713639,36.7886055 23.9271857,36.0123185 24.1555631,35.025542 L24.1736961,35.025542 C24.4295179,36.0123185 24.6576503,36.7886055 24.8953392,37.628603 L23.415787,37.628603 Z" id="Shape" fill="#FFFFFF"></path>
                <polygon id="Path" fill="#FFFFFF" points="27.8176874 40.158397 27.8176874 34.6239213 26.1372024 34.6239213 26.1372024 33.7653008 30.5939918 33.7653008 30.5939918 34.6239213 28.9135068 34.6239213 28.9135068 40.158397"></polygon>
                <rect id="Rectangle" fill="#FFFFFF" x="30.9502801" y="33.7653008" width="1.08650781" height="6.39309624"></rect>
                <path d="M35.4158909,33.6557678 C33.8542503,33.6557678 32.703787,35.080431 32.703787,36.8704489 C32.703787,38.7795564 33.7444724,40.2679299 35.4158909,40.2679299 C37.0873094,40.2679299 38.1284848,38.7795564 38.1284848,36.8704489 C38.1284848,35.080431 36.9775314,33.6557678 35.4158909,33.6557678 Z M35.4158909,39.3546655 C34.2742491,39.3546655 33.8723833,38.0944242 33.8723833,36.8702039 C33.8723833,35.691806 34.3293831,34.5685422 35.4158909,34.5685422 C36.5028888,34.5685422 36.9593985,35.691806 36.9593985,36.8702039 C36.9593985,38.0946693 36.5575327,39.3546655 35.4158909,39.3546655 Z" id="Shape" fill="#FFFFFF"></path>
                <path d="M43.5808721,40.158397 L42.7864521,40.158397 C41.7452767,38.6881564 40.7129228,37.2269823 39.6813039,35.5739417 L39.6719924,35.5739417 L39.6719924,40.158397 L38.7949939,40.158397 L38.7949939,33.7653008 L39.589904,33.7653008 C40.6310794,35.2264749 41.6626982,36.6790726 42.6857406,38.3225566 L42.7038736,38.3225566 L42.7038736,33.7653008 L43.5808721,33.7653008 L43.5808721,40.158397 Z" id="Path" fill="#FFFFFF"></path>
                <path d="M20.6593309,45.5066423 L20.6593309,48.1459692 C20.0746653,48.3743466 19.4628001,48.5390135 18.8418685,48.5390135 C16.9604506,48.5390135 15.7732313,47.0778394 15.7732313,45.1959314 C15.7732313,43.451981 16.9604506,41.9266064 18.8783795,41.9266064 C19.4718666,41.9266064 20.0655988,42.1459173 20.4309536,42.4196271 L20.0746653,43.1777811 C19.7825775,42.9954713 19.3258227,42.8398708 18.905824,42.8398708 C17.7367377,42.8398708 16.9420726,43.7626919 16.9420726,45.2145545 C16.9420726,46.7308626 17.8555821,47.625259 18.796046,47.625259 C19.0883789,47.625259 19.3348892,47.588993 19.5632666,47.4701486 L19.5632666,45.5063972 L20.6593309,45.5063972 L20.6593309,45.5066423 Z" id="Path" fill="#FFFFFF"></path>
                <polygon id="Path" fill="#FFFFFF" points="24.5770321 42.8950049 22.7505032 42.8950049 22.7505032 44.6485118 24.5405211 44.6485118 24.5405211 45.5066423 22.7505032 45.5066423 22.7505032 47.5708601 24.9058759 47.5708601 24.9058759 48.4294806 21.6546838 48.4294806 21.6546838 42.0363843 24.5770321 42.0363843"></polygon>
                <path d="M27.9561351,41.9268514 C26.3944945,41.9268514 25.2437862,43.3515146 25.2437862,45.1415325 C25.2437862,47.0501499 26.2849616,48.5390135 27.9561351,48.5390135 C29.6275536,48.5390135 30.668729,47.0501499 30.668729,45.1415325 C30.668729,43.3515146 29.5180207,41.9268514 27.9561351,41.9268514 Z M27.9561351,47.6257491 C26.8144932,47.6257491 26.4126275,46.3650177 26.4126275,45.1412875 C26.4126275,43.9628896 26.8693822,42.8396258 27.9561351,42.8396258 C29.043133,42.8396258 29.4996427,43.9628896 29.4996427,45.1412875 C29.4996427,46.3652628 29.0977769,47.6257491 27.9561351,47.6257491 Z" id="Shape" fill="#FFFFFF"></path>
                <path d="M35.9290049,45.5066423 L35.9290049,48.1459692 C35.3445842,48.3743466 34.7327191,48.5390135 34.1115424,48.5390135 C32.2306146,48.5390135 31.0429052,47.0778394 31.0429052,45.1959314 C31.0429052,43.451981 32.2306146,41.9266064 34.1482984,41.9266064 C34.7417856,41.9266064 35.3357628,42.1459173 35.7008725,42.4196271 L35.3445842,43.1777811 C35.0524964,42.9954713 34.5954966,42.8398708 34.1754979,42.8398708 C33.0066566,42.8398708 32.2119916,43.7626919 32.2119916,45.2145545 C32.2119916,46.7308626 33.125256,47.625259 34.06621,47.625259 C34.3582978,47.625259 34.6048081,47.588993 34.8331855,47.4701486 L34.8331855,45.5063972 L35.9290049,45.5063972 L35.9290049,45.5066423 Z" id="Path" fill="#FFFFFF"></path>
                <path d="M39.5181072,45.7808421 C40.2213723,45.4061758 40.6232381,44.6485118 40.6232381,43.8812913 C40.6232381,42.6389379 39.865329,42.0363843 38.6415988,42.0363843 L36.9334242,42.0363843 L36.9334242,48.4294806 L38.0292436,48.4294806 L38.0292436,46.018286 L38.5043763,46.018286 L38.5225093,46.018286 L39.5546182,48.4294806 L40.805793,48.4294806 L39.5181072,45.7808421 Z M38.4864884,45.1964215 C38.3767104,45.2049979 38.1208886,45.2145545 38.0294886,45.2236209 L38.0294886,42.8947598 L38.5139329,42.8947598 C39.162309,42.8947598 39.5276638,43.268936 39.5276638,43.9266237 C39.5276638,44.7854892 39.0067085,45.168732 38.4864884,45.1964215 Z" id="Shape" fill="#FFFFFF"></path>
                <path d="M43.9474521,42.0363843 L43.0341876,42.0363843 L40.824171,48.4294806 L41.7739464,48.4294806 L42.3311676,46.6850401 L44.2581629,46.6850401 L44.7604951,48.4294806 L45.9842254,48.4294806 L43.9474521,42.0363843 Z M42.6144339,45.8994415 C42.8697657,45.058954 43.1255876,44.2826669 43.3537199,43.2963805 L43.372343,43.2963805 C43.6281648,44.2826669 43.8562972,45.058954 44.093496,45.8994415 L42.6144339,45.8994415 Z" id="Shape" fill="#FFFFFF"></path>
                <path d="M46.9964861,33.7653008 L46.0829766,33.7653008 L43.8727149,40.158397 L44.8227353,40.158397 L45.3797115,38.4139565 L47.3067068,38.4139565 L47.809039,40.158397 L49.0327693,40.158397 L46.9964861,33.7653008 Z M45.6629778,37.628603 C45.9187997,36.7886055 46.1743765,36.0123185 46.4027539,35.025542 L46.4208869,35.025542 C46.6767087,36.0123185 46.9050861,36.7886055 47.14253,37.628603 L45.6629778,37.628603 Z" id="Shape" fill="#FFFFFF"></path>
                <polygon id="Path" fill="#FFFFFF" points="49.3525466 33.7653008 50.4395445 33.7653008 50.4395445 39.2997765 52.6037387 39.2997765 52.6037387 40.158397 49.3525466 40.158397"></polygon>
                <path d="M47.4270215,48.4294806 L46.3312022,48.4294806 L46.3312022,42.0363843 L48.0388867,42.0363843 C49.263107,42.0363843 50.021016,42.6389379 50.021016,43.8812913 C50.021016,44.9584875 49.226351,46.018286 47.9202873,46.018286 L47.4088886,46.018286 L47.4088886,45.223866 C47.4635325,45.2143094 47.7649318,45.205733 47.8840213,45.1966665 C48.4042415,45.168977 48.9247066,44.7854892 48.9247066,43.9268687 C48.9247066,43.2691811 48.5598419,42.8950049 47.9202873,42.8950049 L47.4270215,42.8950049 L47.4270215,48.4294806 Z" id="Path" fill="#FFFFFF"></path>
                <polygon id="Path" fill="#FFFFFF" points="55.098492 48.4294806 54.0029177 48.4294806 54.0029177 45.3515319 51.7289455 45.3515319 51.7289455 48.4294806 50.6417026 48.4294806 50.6417026 42.0363843 51.7289455 42.0363843 51.7289455 44.4929114 54.0029177 44.4929114 54.0029177 42.0545173 55.098492 42.0545173"></polygon>
                <rect id="Rectangle" fill="#FFFFFF" x="56.1487339" y="42.0363843" width="1.08699789" height="6.39309624"></rect>
                <path d="M62.1674088,43.1959141 C61.9022754,43.0317372 61.4641437,42.8398708 61.0439,42.8398708 C59.9299477,42.8398708 59.1169046,43.7626919 59.1169046,45.2145545 C59.1169046,46.7303725 60.0120361,47.6257491 61.0715895,47.6257491 C61.4915882,47.6257491 61.8841425,47.4887716 62.1674088,47.3059717 L62.4688081,48.1003917 C62.1399643,48.3287691 61.5555437,48.5382784 61.025767,48.5382784 C59.1443491,48.5382784 57.9571298,47.0775943 57.9571298,45.1961764 C57.9571298,43.451736 59.1355276,41.9263613 61.0439,41.9263613 C61.6101876,41.9263613 62.1399643,42.1638052 62.5141406,42.419382 L62.1674088,43.1959141 Z" id="Path" fill="#FFFFFF"></path>
            </g>
        </g>
    </g>
</svg>