<svg xmlns="http://www.w3.org/2000/svg" width="139" height="51" viewBox="0 0 139 51">
    <g fill="none" fill-rule="nonzero">
        <path fill="#FFCE00" d="M.026 41.06V.395H28.42V41.06H.026zm24.237-4.158V4.452H4.083v32.45h20.18z"/>
        <g fill="#FFF">
            <path d="M47.18 18.65h-1.724A219.864 219.864 0 0 1 38.56 8.508v10.14h-2.028V4.553h1.724a286.929 286.929 0 0 1 6.896 10.04V4.553h1.926V18.65h.102zM51.743 13.072a58.008 58.008 0 0 0 1.623-5.78c.609 2.23 1.116 3.853 1.623 5.78h-3.246zm.912-8.519L47.79 18.65h2.13l1.216-3.853h4.259l1.115 3.853h2.738L54.684 4.553h-2.029zM61.478 18.65V6.378h-3.65V4.553h9.836V6.48h-3.752v12.17zM68.373 18.65V4.552h2.434V18.65zM78.311 16.824c-2.535 0-3.448-2.738-3.448-5.477 0-2.636 1.014-5.07 3.448-5.07s3.448 2.535 3.448 5.07c0 2.739-.913 5.477-3.448 5.477zm0 2.028c3.65 0 5.983-3.245 5.983-7.505 0-3.954-2.535-7.098-5.983-7.098-3.447 0-5.983 3.144-5.983 7.098 0 4.26 2.231 7.505 5.983 7.505zM96.361 18.65h-1.723a220.392 220.392 0 0 1-6.895-10.141v10.14h-1.927V4.553h1.723a286.93 286.93 0 0 1 6.895 10.04V4.553h1.927V18.65zM100.925 13.072a58.186 58.186 0 0 0 1.622-5.78c.608 2.23 1.115 3.853 1.622 5.78h-3.244zm1.014-8.519L96.97 18.65h2.13l1.217-3.853h4.258l1.116 3.853h2.737l-4.461-14.096h-2.028zM109.138 4.553h2.434v12.27h4.766v1.826h-7.2zM45.659 30.412v5.881c-1.319.507-2.637.913-4.056.913-4.158 0-6.795-3.245-6.795-7.402 0-3.854 2.637-7.2 6.896-7.2 1.318 0 2.636.507 3.448 1.115l-.812 1.723c-.608-.405-1.622-.71-2.535-.71-2.535 0-4.36 2.029-4.36 5.274 0 3.345 2.028 5.374 4.056 5.374.609 0 1.217-.1 1.724-.304v-4.36h2.434v-.304zM54.278 24.632h-4.056v3.853h3.955v1.927h-3.955v4.564h4.766v1.926h-7.2V22.806h6.49zM61.783 35.178c-2.536 0-3.449-2.738-3.449-5.476 0-2.637 1.014-5.07 3.449-5.07 2.433 0 3.447 2.535 3.447 5.07 0 2.637-.913 5.476-3.447 5.476zm0 2.028c3.65 0 5.982-3.245 5.982-7.504 0-3.955-2.535-7.098-5.982-7.098-3.449 0-5.983 3.143-5.983 7.098 0 4.158 2.332 7.504 5.983 7.504zM79.427 30.412v5.881c-1.318.507-2.636.913-4.056.913-4.158 0-6.795-3.245-6.795-7.402 0-3.854 2.637-7.2 6.896-7.2 1.318 0 2.636.507 3.448 1.115l-.812 1.622c-.608-.406-1.622-.71-2.535-.71-2.535 0-4.36 2.029-4.36 5.273 0 3.346 2.028 5.375 4.057 5.375.608 0 1.216-.1 1.723-.304v-4.36h2.434v-.203zM84.092 24.632h1.115c1.42 0 2.23.812 2.23 2.333 0 1.926-1.114 2.737-2.332 2.84-.203 0-.811 0-1.013.1v-5.273zm6.083 12.27l-2.84-5.882c1.523-.811 2.436-2.535 2.436-4.158 0-2.737-1.724-4.056-4.36-4.056h-3.753v14.096h2.434v-5.375h1.014l2.332 5.375h2.737zM94.232 31.324a57.773 57.773 0 0 0 1.622-5.78c.608 2.232 1.115 3.854 1.622 5.78h-3.244zm.913-8.518l-4.868 14.096h2.13l1.217-3.854h4.258l1.116 3.854h2.737l-4.462-14.096h-2.128zM104.88 36.902h-2.435V22.806h3.753c2.737 0 4.36 1.319 4.36 4.056 0 2.435-1.724 4.766-4.665 4.766h-1.115v-1.824c.101 0 .812 0 1.014-.102 1.115-.101 2.332-.913 2.332-2.84 0-1.419-.811-2.332-2.23-2.332h-1.116v12.372h.101zM121.814 36.902h-2.434v-6.795h-5.07v6.795h-2.433V22.806h2.433v5.477h5.07v-5.375h2.434zM124.147 36.902V22.806h2.433v14.096zM137.43 25.342c-.608-.406-1.52-.811-2.535-.811-2.434 0-4.259 2.028-4.259 5.273 0 3.346 2.029 5.375 4.36 5.375.913 0 1.826-.304 2.435-.71l.71 1.723c-.71.508-2.028 1.015-3.145 1.015-4.157 0-6.794-3.245-6.794-7.403 0-3.853 2.637-7.2 6.794-7.2 1.217 0 2.435.507 3.245 1.115l-.81 1.623z"/>
        </g>
        <g fill="#FFF">
            <path d="M40.69 42.277h-2.637v2.535h2.536v1.217h-2.536v3.042h3.144v1.217h-4.665v-9.229h4.26v1.218zM47.079 42.682a1.872 1.872 0 0 0-1.217-.508c-.609 0-1.014.406-1.014 1.014 0 .609.507 1.116 1.42 1.927 1.014 1.014 1.622 1.724 1.622 2.94 0 1.116-.912 2.536-2.738 2.536-.811 0-1.723-.304-2.332-.912l.608-1.014c.405.405.912.71 1.623.71.608 0 1.216-.407 1.216-1.32 0-1.013-1.014-1.723-1.723-2.23-.812-.71-1.42-1.318-1.42-2.536 0-1.216 1.014-2.23 2.434-2.23.913 0 1.623.406 2.029.81l-.508.813zM51.033 50.288h-1.622v-9.229h2.434c1.724 0 2.84.913 2.84 2.637 0 1.521-1.116 3.042-3.043 3.042h-.71v-1.116h.71c.71 0 1.521-.608 1.521-1.825 0-.912-.507-1.521-1.42-1.521h-.709v8.012zM59.551 41.06l2.941 9.228h-1.724l-.71-2.536H57.32l-.811 2.536h-1.42l3.144-9.229h1.318zm.203 5.577c-.304-1.217-.71-2.332-1.014-3.752-.305 1.42-.71 2.535-1.116 3.752h2.13zM70.706 50.288h-1.115c-1.521-2.13-3.042-4.259-4.462-6.591v6.591h-1.217v-9.229h1.014c1.521 2.13 3.043 4.158 4.463 6.592v-6.592h1.216v9.229h.101zm-1.014-11.561c-.304.71-.71 1.217-1.216 1.217-.305 0-.61-.203-.812-.405-.304-.204-.507-.406-.912-.406-.406 0-.609.406-.812.812l-.608-.406c.406-.912.812-1.419 1.42-1.419.304 0 .608.203.912.405.305.202.608.406.812.406.303 0 .507-.406.71-.71l.506.506zM76.486 41.06l2.94 9.228h-1.724l-.709-2.536h-2.738l-.811 2.536h-1.42l3.144-9.229h1.318zm.203 5.577c-.304-1.217-.71-2.332-1.015-3.752-.303 1.42-.709 2.535-1.115 3.752h2.13z"/>
        </g>
    </g>
</svg>
