<svg xmlns="http://www.w3.org/2000/svg" width="250" height="33" viewBox="0 0 250 33">
    <g fill="none" fill-rule="nonzero">
        <g fill="#FFF">
            <path d="M12.64 32.209h6.015L30.973.989h-7.341l-7.896 21.833L7.84.989H.322zM32.08.99h6.81v30.997h-6.81zM59.497.768h-6.28l-12.89 31.219h6.943l2.831-6.952h12.337l2.83 6.952h7.121L59.497.767zm-6.964 18.245L56.268 8.96l4.114 10.052h-7.849zM79.306 21.852c0 3.49-.65 4.654-2.603 4.654-1.254 0-2.231-.512-3.254-1.722v6.737c1.255.652 3.382.978 5.148.978 2.092 0 3.766-.652 5.114-2.001 1.72-1.723 2.324-3.771 2.324-8.053V.94h-6.729v20.912zM88.605 31.987h22.782V25.92H95.371v-6.51h13.804v-6.066H95.371V7.056h15.795V.99H88.605zM125.297 32.43c6.679 0 11.367-3.454 11.367-9.608v-.089c0-5.403-3.538-7.662-9.818-9.3-5.352-1.372-6.68-2.037-6.68-4.074v-.088c0-1.506 1.373-2.702 3.981-2.702 2.61 0 5.308 1.152 8.05 3.057l3.538-5.138c-3.14-2.524-6.988-3.94-11.5-3.94-6.323 0-10.835 3.719-10.835 9.342v.089c0 6.155 4.025 7.881 10.26 9.476 5.176 1.328 6.237 2.214 6.237 3.94v.089c0 1.815-1.68 2.923-4.467 2.923-3.538 0-6.457-1.461-9.244-3.764l-4.024 4.826c3.715 3.323 8.447 4.961 13.135 4.961"/>
        </g>
        <path fill="#FECD2F" d="M141.548.13V32.2h22.354V.13h-22.354zm19.12 28.84H144.77V3.359h15.897V28.97z"/>
        <path fill="#FFF" d="M177.752 16.172h-1.385c-1.816-2.566-3.615-5.116-5.414-8.004h-.017v8.004h-1.528V5.012h1.385c1.816 2.55 3.615 5.086 5.4 7.957h.031V5.011h1.528v11.161zM183.709 5.011h-1.592l-3.854 11.161h1.656l.972-3.044h3.36l.877 3.044h2.133l-3.552-11.16zm-2.325 6.745c.446-1.466.892-2.823 1.29-4.544h.032c.446 1.721.843 3.078 1.257 4.544h-2.579zM189.06 16.172V6.51h-2.93V5.011h7.77V6.51h-2.93v9.663zM194.522 5.011h1.895v11.161h-1.895zM202.31 4.82c-2.723 0-4.73 2.487-4.73 5.613 0 3.331 1.815 5.931 4.73 5.931 2.913 0 4.73-2.6 4.73-5.931 0-3.126-2.006-5.613-4.73-5.613zm0 9.95c-1.992 0-2.692-2.2-2.692-4.337 0-2.058.797-4.018 2.691-4.018 1.895 0 2.693 1.96 2.693 4.018-.001 2.136-.702 4.337-2.693 4.337zM216.548 16.172h-1.386c-1.816-2.566-3.615-5.116-5.415-8.004h-.015v8.004h-1.53V5.012h1.386c1.816 2.55 3.615 5.086 5.398 7.957h.033V5.011h1.53v11.161zM222.503 5.011h-1.591l-3.855 11.161h1.657l.972-3.044h3.36l.876 3.044h2.133l-3.552-11.16zm-2.325 6.745c.446-1.466.892-2.823 1.29-4.544h.031c.446 1.721.844 3.078 1.257 4.544h-2.578zM226.612 5.011h1.895v9.663h3.774v1.498h-5.67zM176.941 23.634v4.608c-1.02.4-2.086.686-3.168.686-3.281 0-5.351-2.551-5.351-5.835 0-3.047 2.07-5.71 5.414-5.71 1.035 0 2.07.384 2.707.861l-.621 1.324c-.509-.319-1.305-.589-2.038-.589-2.038 0-3.424 1.61-3.424 4.145 0 2.646 1.592 4.21 3.233 4.21.51 0 .94-.065 1.337-.27v-3.43h1.911zM183.773 19.072h-3.185v3.063h3.122v1.498h-3.122v3.605h3.758v1.498h-5.67V17.575h5.097zM189.666 17.385c-2.724 0-4.73 2.487-4.73 5.612 0 3.331 1.816 5.931 4.73 5.931 2.914 0 4.73-2.6 4.73-5.931 0-3.126-2.006-5.612-4.73-5.612zm0 9.949c-1.992 0-2.692-2.2-2.692-4.338 0-2.058.796-4.018 2.692-4.018 1.895 0 2.69 1.96 2.69 4.018 0 2.137-.7 4.338-2.69 4.338zM203.568 23.634v4.608c-1.019.4-2.086.686-3.168.686-3.28 0-5.351-2.551-5.351-5.835 0-3.047 2.07-5.71 5.415-5.71 1.035 0 2.07.384 2.707.861l-.621 1.324c-.509-.319-1.306-.589-2.038-.589-2.038 0-3.424 1.61-3.424 4.145 0 2.646 1.591 4.21 3.232 4.21.51 0 .939-.065 1.338-.27v-3.43h1.91zM209.827 24.113c1.227-.654 1.927-1.978 1.927-3.317 0-2.168-1.322-3.221-3.456-3.221h-2.978v11.16h1.91v-4.208h.86l1.8 4.209h2.182l-2.245-4.623zm-1.8-1.021c-.19.016-.636.031-.795.047v-4.067h.844c1.13 0 1.768.654 1.768 1.803 0 1.499-.908 2.169-1.817 2.217zM217.551 17.575h-1.592l-3.854 11.16h1.657l.972-3.044h3.36l.876 3.045h2.135l-3.554-11.161zm-2.325 6.745c.446-1.466.891-2.822 1.29-4.544h.032c.446 1.723.843 3.078 1.258 4.544h-2.58zM223.62 28.736h-1.911V17.575h2.977c2.134 0 3.455 1.053 3.455 3.22 0 1.882-1.385 3.733-3.661 3.733h-.893v-1.389c.095-.016.621-.031.829-.047.907-.05 1.815-.719 1.815-2.217 0-1.149-.636-1.803-1.751-1.803h-.86v9.664zM236.996 28.736h-1.91v-5.374h-3.965v5.374h-1.897V17.575h1.897v4.29h3.964v-4.26h1.911zM238.828 17.575h1.895v11.162h-1.895zM249.323 19.6c-.462-.288-1.227-.621-1.96-.621-1.942 0-3.359 1.61-3.359 4.145 0 2.647 1.56 4.21 3.408 4.21.732 0 1.418-.24 1.911-.558l.525 1.387c-.574.399-1.592.765-2.517.765-3.28 0-5.35-2.551-5.35-5.835 0-3.047 2.054-5.71 5.382-5.71.987 0 1.911.415 2.565.861l-.605 1.356z"/>
    </g>
</svg>
