<svg xmlns="http://www.w3.org/2000/svg" width="432" height="55" viewBox="0 0 432 55">
    <g fill="none" fill-rule="nonzero">
        <g fill="#000">
            <path d="M21.842 53.681h10.394L53.522 1.65H40.836L27.192 38.036 13.548 1.649H.556zM55.434 1.649h11.77V53.31h-11.77zM102.81 1.28H91.96L69.684 53.31h11.999l4.892-11.586h21.318l4.89 11.586h12.305L102.81 1.28zM90.777 31.688l6.455-16.753 7.108 16.753H90.777zM137.041 36.42c0 5.817-1.124 7.757-4.498 7.757-2.168 0-3.856-.854-5.623-2.87v11.229c2.169 1.086 5.844 1.628 8.896 1.628 3.614 0 6.508-1.086 8.836-3.335 2.973-2.87 4.017-6.284 4.017-13.421V1.567h-11.628V36.42zM153.109 53.311h39.369v-10.11H164.8v-10.85h23.855V22.24H164.8v-10.48h27.296V1.649h-38.987zM216.514 54.05c11.54 0 19.641-5.756 19.641-16.014v-.148c0-9.005-6.113-12.77-16.966-15.499-9.247-2.287-11.541-3.395-11.541-6.79v-.148c0-2.509 2.37-4.502 6.878-4.502 4.51 0 9.172 1.92 13.91 5.094l6.114-8.563C229.123 3.273 222.474.912 214.679.912c-10.928 0-18.723 6.2-18.723 15.57v.15c0 10.258 6.955 13.135 17.73 15.793 8.943 2.213 10.776 3.69 10.776 6.567v.148c0 3.025-2.903 4.872-7.719 4.872-6.113 0-11.157-2.436-15.973-6.274l-6.953 8.043c6.418 5.54 14.596 8.27 22.697 8.27"/>
        </g>
        <path fill="#FECD2F" d="M244.595.216v53.452h38.628V.216h-38.628zm33.038 48.067h-27.47V5.598h27.47v42.685z"/>
        <path fill="#000" d="M307.156 26.954h-2.395c-3.136-4.277-6.246-8.528-9.355-13.34h-.028v13.34h-2.642V8.352h2.394c3.139 4.252 6.248 8.478 9.331 13.263h.055V8.352h2.64v18.602zM317.45 8.352h-2.753l-6.659 18.602h2.862l1.68-5.075h5.807l1.514 5.075h3.686L317.45 8.352zm-4.018 11.241c.77-2.444 1.54-4.705 2.23-7.573h.054c.77 2.869 1.457 5.13 2.172 7.573h-4.456zM326.695 26.954V10.848h-5.062V8.352h13.427v2.496h-5.063v16.106zM336.134 8.352h3.275v18.602h-3.275zM349.59 8.034c-4.704 0-8.171 4.145-8.171 9.354 0 5.552 3.136 9.885 8.172 9.885 5.035 0 8.174-4.333 8.174-9.885 0-5.209-3.467-9.354-8.174-9.354zm0 16.583c-3.44 0-4.65-3.667-4.65-7.229 0-3.43 1.377-6.697 4.65-6.697 3.275 0 4.653 3.268 4.653 6.697-.002 3.56-1.213 7.23-4.652 7.23zM374.195 26.954H371.8c-3.136-4.277-6.246-8.528-9.357-13.34h-.026v13.34h-2.642V8.352h2.395c3.136 4.252 6.245 8.478 9.327 13.263h.057V8.352h2.642v18.602zM384.486 8.352h-2.75l-6.661 18.602h2.862l1.68-5.075h5.806l1.514 5.075h3.687l-6.138-18.602zm-4.019 11.241c.77-2.444 1.542-4.705 2.23-7.573h.054c.77 2.869 1.458 5.13 2.172 7.573h-4.456zM391.585 8.352h3.276v16.104h6.521v2.498h-9.797zM305.755 39.39v7.68c-1.763.666-3.605 1.144-5.476 1.144-5.669 0-9.246-4.253-9.246-9.726 0-5.078 3.577-9.516 9.356-9.516 1.789 0 3.576.64 4.678 1.435l-1.074 2.207c-.879-.532-2.254-.982-3.521-.982-3.521 0-5.917 2.683-5.917 6.908 0 4.41 2.751 7.016 5.586 7.016.881 0 1.624-.107 2.31-.45V39.39h3.304zM317.56 31.787h-5.503v5.105h5.394v2.496h-5.394v6.008h6.494v2.497h-9.797V29.29h8.806zM327.742 28.974c-4.706 0-8.173 4.145-8.173 9.354 0 5.553 3.138 9.886 8.173 9.886 5.037 0 8.175-4.333 8.175-9.886 0-5.21-3.467-9.354-8.175-9.354zm0 16.582c-3.44 0-4.65-3.667-4.65-7.229 0-3.43 1.375-6.697 4.65-6.697 3.276 0 4.65 3.268 4.65 6.697 0 3.562-1.21 7.23-4.65 7.23zM351.766 39.39v7.68c-1.761.666-3.605 1.144-5.474 1.144-5.669 0-9.247-4.253-9.247-9.726 0-5.078 3.578-9.516 9.356-9.516 1.79 0 3.577.64 4.679 1.435l-1.074 2.207c-.88-.532-2.256-.982-3.521-.982-3.521 0-5.918 2.683-5.918 6.908 0 4.41 2.75 7.016 5.586 7.016.882 0 1.622-.107 2.311-.45V39.39h3.302zM362.581 40.188c2.12-1.09 3.33-3.296 3.33-5.529 0-3.612-2.285-5.368-5.972-5.368h-5.146v18.602h3.302v-7.015h1.486l3.109 7.015h3.771l-3.88-7.705zm-3.11-1.701c-.328.026-1.099.052-1.375.079v-6.779h1.46c1.953 0 3.055 1.09 3.055 3.005 0 2.498-1.569 3.614-3.14 3.695zM375.929 29.29h-2.752l-6.659 18.603h2.863l1.68-5.075h5.806l1.514 5.075h3.688l-6.14-18.602zm-4.019 11.244c.771-2.444 1.54-4.704 2.23-7.574h.055c.77 2.872 1.457 5.13 2.174 7.574h-4.459zM386.415 47.893h-3.302V29.29h5.144c3.688 0 5.971 1.756 5.971 5.368 0 3.137-2.393 6.22-6.327 6.22h-1.543v-2.313c.165-.027 1.074-.053 1.432-.08 1.568-.081 3.137-1.197 3.137-3.694 0-1.915-1.1-3.005-3.026-3.005h-1.486v16.106zM409.53 47.893h-3.303v-8.956h-6.85v8.956H396.1V29.29h3.276v7.15h6.851v-7.098h3.302zM412.695 29.29h3.275v18.606h-3.275zM430.83 32.666c-.798-.479-2.12-1.034-3.386-1.034-3.356 0-5.805 2.683-5.805 6.908 0 4.412 2.696 7.016 5.888 7.016 1.266 0 2.45-.398 3.303-.93l.907 2.312c-.991.665-2.751 1.276-4.349 1.276-5.667 0-9.245-4.253-9.245-9.726 0-5.078 3.55-9.516 9.3-9.516 1.707 0 3.303.692 4.432 1.435l-1.045 2.259z"/>
    </g>
</svg>
